<svg width="150" height="150" viewBox="0 0 150 150" fill="none" xmlns="http://www.w3.org/2000/svg">
<path d="M134.783 58.3292C134.783 58.3292 149.138 21.6125 141.663 8.3375C139.146 3.86667 108.329 16.6625 96.9833 31.0125C96.9833 31.0125 86.2084 27.4292 75 27.4292C63.7917 27.4292 53.0167 31.0125 53.0167 31.0125C41.6708 16.6625 10.8542 3.86667 8.33751 8.3375C0.862509 21.6125 15.2167 58.3292 15.2167 58.3292C11.4792 65.5042 10.0792 76.4333 8.73751 88.1625C7.26251 101.021 10.1958 111.271 11.4792 113.533C12.9375 116.104 20.325 124.388 30.1625 131.475C45.1083 142.237 67.525 145.829 75 145.829C82.475 145.829 104.892 142.242 119.838 131.475C129.675 124.388 137.063 116.104 138.521 113.533C139.804 111.271 142.738 101.021 141.267 88.1625C139.917 76.4375 138.521 65.5042 134.783 58.3292Z" fill="#FFCC4D"/>
<path d="M9.82922 12.3792C10.6626 9.88333 32.1126 21.4333 36.9875 34.8958C36.9875 34.8958 21.1209 45.8292 18.1209 54.1625C18.1209 54.1625 5.66255 24.8792 9.82922 12.3792Z" fill="#F18F26"/>
<path d="M24.917 30.2542C24.917 24.3625 47.6545 41.6417 43.4878 45.8083C39.3212 49.975 38.2587 48.8083 34.092 52.975C29.9253 57.1417 24.917 34.4208 24.917 30.2542Z" fill="#FFCC4D"/>
<path d="M140.171 12.3792C139.338 9.88333 117.888 21.4333 113.013 34.8958C113.013 34.8958 128.879 45.8292 131.879 54.1625C131.879 54.1625 144.338 24.8792 140.171 12.3792Z" fill="#F18F26"/>
<path d="M125.084 30.2542C125.084 24.3625 102.346 41.6417 106.513 45.8083C110.68 49.975 111.742 48.8083 115.909 52.975C120.075 57.1417 125.084 34.4208 125.084 30.2542Z" fill="#FFCC4D"/>
<path d="M58.3373 83.3375C58.3726 84.4535 58.1833 85.5652 57.7806 86.6065C57.3779 87.6479 56.77 88.5977 55.9931 89.3996C55.2162 90.2015 54.2861 90.8391 53.2579 91.2745C52.2298 91.7099 51.1247 91.9343 50.0081 91.9343C48.8916 91.9343 47.7865 91.7099 46.7583 91.2745C45.7302 90.8391 44.8001 90.2015 44.0231 89.3996C43.2462 88.5977 42.6384 87.6479 42.2357 86.6065C41.833 85.5652 41.6437 84.4535 41.679 83.3375C41.7619 81.1848 42.6752 79.1479 44.2273 77.654C45.7794 76.1601 47.8498 75.3253 50.004 75.3248C52.1583 75.3242 54.2291 76.158 55.782 77.6511C57.3349 79.1442 58.2492 81.1807 58.3331 83.3333L58.3373 83.3375ZM108.329 83.3375C108.364 84.4535 108.175 85.5652 107.772 86.6065C107.37 87.6479 106.762 88.5977 105.985 89.3996C105.208 90.2015 104.278 90.8391 103.25 91.2745C102.221 91.7099 101.116 91.9343 99.9998 91.9343C98.8833 91.9343 97.7781 91.7099 96.75 91.2745C95.7219 90.8391 94.7917 90.2015 94.0148 89.3996C93.2379 88.5977 92.63 87.6479 92.2273 86.6065C91.8246 85.5652 91.6353 84.4535 91.6706 83.3375C91.7391 81.1741 92.6466 79.1221 94.2012 77.616C95.7557 76.1098 97.8353 75.2677 99.9998 75.2677C102.164 75.2677 104.244 76.1098 105.798 77.616C107.353 79.1221 108.261 81.1741 108.329 83.3375Z" fill="#292F33"/>
<path d="M9.17081 126.908C8.73835 126.908 8.31672 126.773 7.96438 126.522C7.61205 126.272 7.34648 125.917 7.20452 125.509C7.06255 125.1 7.05123 124.658 7.17211 124.243C7.293 123.827 7.5401 123.46 7.87915 123.192C8.55415 122.662 24.6291 110.192 52.2458 112.338C52.7959 112.38 53.3066 112.639 53.666 113.058C54.0253 113.477 54.2038 114.021 54.1625 114.571C54.075 115.717 53.0916 116.658 51.925 116.488C25.9541 114.513 10.6125 126.346 10.4625 126.467C10.0913 126.75 9.63791 126.905 9.17081 126.908ZM46.1208 107.479C45.9105 107.479 45.7013 107.448 45.5 107.388C25.5416 101.15 9.09581 105.942 8.92915 105.988C8.66732 106.066 8.39254 106.093 8.1205 106.065C7.84845 106.038 7.58447 105.957 7.34362 105.828C7.10276 105.698 6.88976 105.523 6.71677 105.311C6.54378 105.099 6.41419 104.856 6.3354 104.594C6.2566 104.332 6.23015 104.057 6.25755 103.785C6.28495 103.513 6.36567 103.249 6.49509 103.008C6.62451 102.767 6.8001 102.554 7.01184 102.381C7.22358 102.208 7.46732 102.079 7.72915 102C8.44998 101.783 25.5875 96.8042 46.7375 103.408C47.2117 103.557 47.617 103.871 47.8803 104.293C48.1435 104.714 48.2472 105.216 48.1728 105.708C48.0983 106.199 47.8506 106.648 47.4743 106.973C47.098 107.298 46.6179 107.477 46.1208 107.479ZM140.829 126.908C141.262 126.908 141.683 126.773 142.036 126.522C142.388 126.272 142.653 125.917 142.795 125.509C142.937 125.1 142.949 124.658 142.828 124.243C142.707 123.827 142.46 123.46 142.121 123.192C141.446 122.662 125.371 110.192 97.7541 112.338C97.2041 112.38 96.6933 112.639 96.334 113.058C95.9747 113.477 95.7961 114.021 95.8375 114.571C95.9291 115.717 96.9083 116.658 98.075 116.488C124.046 114.513 139.387 126.346 139.537 126.467C139.925 126.758 140.379 126.908 140.829 126.908ZM103.879 107.479C104.083 107.479 104.296 107.45 104.5 107.388C124.458 101.15 140.904 105.942 141.071 105.988C141.333 106.066 141.607 106.093 141.879 106.065C142.151 106.038 142.415 105.957 142.656 105.828C142.897 105.698 143.11 105.523 143.283 105.311C143.456 105.099 143.586 104.856 143.665 104.594C143.743 104.332 143.77 104.057 143.742 103.785C143.715 103.513 143.634 103.249 143.505 103.008C143.375 102.767 143.2 102.554 142.988 102.381C142.776 102.208 142.533 102.079 142.271 102C141.55 101.783 124.412 96.8042 103.262 103.408C102.788 103.557 102.383 103.871 102.12 104.293C101.856 104.714 101.753 105.216 101.827 105.708C101.902 106.199 102.149 106.648 102.526 106.973C102.902 107.298 103.382 107.477 103.879 107.479Z" fill="#FEE7B8"/>
<path d="M103.067 128.742C102.874 128.224 102.484 127.804 101.981 127.574C101.479 127.345 100.906 127.324 100.388 127.517C98.0879 128.375 95.9046 128.813 93.8921 128.813C89.0921 128.813 87.3879 127.538 85.4213 126.067C83.5421 124.658 81.4379 123.087 77.1296 122.721V112.975C77.1296 112.422 76.9101 111.893 76.5194 111.502C76.1287 111.111 75.5988 110.892 75.0463 110.892C74.4937 110.892 73.9638 111.111 73.5731 111.502C73.1824 111.893 72.9629 112.422 72.9629 112.975V122.862C69.5879 123.342 67.3546 124.692 65.3963 125.958C63.0296 127.487 60.9838 128.813 56.7171 128.813C54.7088 128.813 52.5254 128.379 50.2254 127.517C49.7132 127.349 49.156 127.386 48.6704 127.62C48.1848 127.853 47.8084 128.266 47.62 128.771C47.4316 129.276 47.4458 129.834 47.6596 130.329C47.8734 130.823 48.2702 131.216 48.7671 131.425C51.5338 132.454 54.2088 132.979 56.7129 132.979C62.2088 132.979 65.1046 131.108 67.6588 129.458C69.8421 128.046 71.7421 126.829 75.3588 126.812C79.4921 126.846 81.0171 127.971 82.9213 129.4C85.1629 131.079 87.7004 132.979 93.8921 132.979C96.3963 132.979 99.0754 132.454 101.842 131.425C102.099 131.33 102.334 131.184 102.535 130.998C102.736 130.811 102.897 130.587 103.011 130.337C103.125 130.088 103.189 129.819 103.198 129.545C103.208 129.271 103.163 128.998 103.067 128.742Z" fill="#67757F"/>
<path d="M80.8338 103.362H69.1671C66.5005 103.362 64.3213 105.542 64.3213 108.208C64.3213 110.871 66.5005 113.054 69.1671 113.054H70.1546V114.492C70.1546 117.154 72.3338 119.338 75.0005 119.338C77.6671 119.338 79.8463 117.158 79.8463 114.492V113.054H80.8338C83.4963 113.054 85.6796 110.875 85.6796 108.208C85.6796 105.542 83.4963 103.362 80.8338 103.362Z" fill="#E75A70"/>
<path d="M75.0916 71.475C74.5391 71.475 74.0092 71.2555 73.6185 70.8648C73.2278 70.4741 73.0083 69.9442 73.0083 69.3917V34.875C73.0083 34.3225 73.2278 33.7926 73.6185 33.4019C74.0092 33.0112 74.5391 32.7917 75.0916 32.7917C75.6441 32.7917 76.174 33.0112 76.5648 33.4019C76.9555 33.7926 77.1749 34.3225 77.1749 34.875V69.3917C77.1749 70.5458 76.2458 71.475 75.0916 71.475ZM87.4999 64.8833C86.9474 64.8833 86.4175 64.6638 86.0268 64.2731C85.6361 63.8824 85.4166 63.3525 85.4166 62.8C85.4166 50.7917 90.5499 41.0917 90.7708 40.6833C91.0354 40.2026 91.479 39.8457 92.0053 39.6901C92.5315 39.5346 93.0979 39.5929 93.5813 39.8525C94.0648 40.1121 94.4263 40.5519 94.5874 41.0765C94.7485 41.6011 94.6961 42.168 94.4416 42.6542C94.3916 42.7417 89.5833 51.875 89.5833 62.8C89.5833 63.3525 89.3638 63.8824 88.9731 64.2731C88.5824 64.6638 88.0525 64.8833 87.4999 64.8833ZM62.4999 64.8833C61.9474 64.8833 61.4175 64.6638 61.0268 64.2731C60.6361 63.8824 60.4166 63.3525 60.4166 62.8C60.4166 51.8708 55.6041 42.7417 55.5541 42.6542C55.3336 42.1717 55.3051 41.6233 55.4743 41.1205C55.6436 40.6177 55.9979 40.1982 56.4653 39.9473C56.9327 39.6964 57.4781 39.6328 57.9907 39.7695C58.5033 39.9062 58.9446 40.233 59.2249 40.6833C59.4458 41.0917 64.5791 50.7917 64.5791 62.8C64.5797 63.0734 64.5263 63.3442 64.422 63.5969C64.3178 63.8497 64.1647 64.0794 63.9716 64.2729C63.7785 64.4664 63.5491 64.6199 63.2966 64.7247C63.044 64.8294 62.7733 64.8833 62.4999 64.8833Z" fill="#F18F26"/>
</svg>
